PathFileType	4	(X/Y/Z)	/Users/itak/Documents/Research/Walk-IL/dataset/trc/00216_00009.trc
DataRate	CameraRate	NumFrames	NumMarkers	Units	OrigDataRate	OrigDataStartFrame	OrigNumFrames
100.000000	100.000000	4	53	mm	100.000000	129	517
Frame#	Time	RPSI			LPSI			L3			STRN			T10			C7			CLAV			RBAK			LBAK			LSHO			LUPA			LAEL			LAOL			LWTS			LWPS			LFRA			LIFD			LHPS			LHTS			RSHO			RUPA			RAEL			RAOL			RWPS			RFRA			RIFD			RHTS			RHPS			RBHD			LFHD			RFHD			LBHD			LHIP			RHIP			RASI			LASI			LKNE			LTHI			LANK			LTIP			LTOE			LMT1			LMT5			LHEE			RKNE			RTHI			RANK			RTIP			RTOE			RMT1			RMT5			RHEE			RWTS			
		X1	Y1	Z1	X2	Y2	Z2	X3	Y3	Z3	X4	Y4	Z4	X5	Y5	Z5	X6	Y6	Z6	X7	Y7	Z7	X8	Y8	Z8	X9	Y9	Z9	X10	Y10	Z10	X11	Y11	Z11	X12	Y12	Z12	X13	Y13	Z13	X14	Y14	Z14	X15	Y15	Z15	X16	Y16	Z16	X17	Y17	Z17	X18	Y18	Z18	X19	Y19	Z19	X20	Y20	Z20	X21	Y21	Z21	X22	Y22	Z22	X23	Y23	Z23	X24	Y24	Z24	X25	Y25	Z25	X26	Y26	Z26	X27	Y27	Z27	X28	Y28	Z28	X29	Y29	Z29	X30	Y30	Z30	X31	Y31	Z31	X32	Y32	Z32	X33	Y33	Z33	X34	Y34	Z34	X35	Y35	Z35	X36	Y36	Z36	X37	Y37	Z37	X38	Y38	Z38	X39	Y39	Z39	X40	Y40	Z40	X41	Y41	Z41	X42	Y42	Z42	X43	Y43	Z43	X44	Y44	Z44	X45	Y45	Z45	X46	Y46	Z46	X47	Y47	Z47	X48	Y48	Z48	X49	Y49	Z49	X50	Y50	Z50	X51	Y51	Z51	X52	Y52	Z52	X53	Y53	Z53	

130	1.29	-1601.567504882812	1050.222534179688	-96.52916717529297	-1601.5205078125	1055.176391601562	-217.2685852050781	-1603.1201171875	1131.781005859375	-174.3973693847656	-1354.973388671875	1312.432006835938	-179.56640625	-1610.881225585938	1260.229125976562	-168.8499755859375	-1541.28369140625	1519.905395507812	-174.6993408203125	-1377.850830078125	1430.719604492188	-177.6423645019531	-1619.19970703125	1383.3896484375	-98.70857238769531	-1565.161010742188	1483.860107421875	-285.6295776367188	-1476.130126953125	1481.526489257812	-342.6285095214844	-1507.645874023438	1364.453369140625	-421.9536437988281	-1492.457275390625	1153.521118164062	-447.9134521484375	-1566.4765625	1137.878784179688	-404.3787536621094	-1403.885620117188	920.135986328125	-386.4542846679688	-1427.1328125	902.4470825195312	-466.0519714355469	-1469.71533203125	1046.086791992188	-460.0811767578125	-1398.873046875	722.218994140625	-393.7901000976562	-1409.822143554688	813.8839111328125	-460.3646240234375	-1368.51171875	818.0799560546875	-406.0266723632812	-1478.1005859375	1475.596801757812	-7.676258087158203	-1495.6142578125	1412.222900390625	61.27343368530273	-1516.36962890625	1130.7705078125	101.1175231933594	-1559.80615234375	1125.965087890625	16.33799934387207	-1438.407470703125	897.9630126953125	113.3564224243164	-1490.084838867188	1061.095947265625	109.9756088256836	-1385.837036132812	715.9974975585938	36.83308410644531	-1355.744018554688	787.7598876953125	53.87545394897461	-1402.673095703125	789.3027954101562	109.6472396850586	-1489.090698242188	1669.582275390625	-120.3076477050781	-1296.206909179688	1714.882690429688	-232.5821838378906	-1287.806640625	1713.418090820312	-133.3124084472656	-1455.200561523438	1677.340942382812	-256.2680358886719	-1500.305297851562	988.9533081054688	-355.5016784667969	-1507.551025390625	1008.263244628906	12.04915904998779	-1409.678955078125	1049.314697265625	-25.9693717956543	-1399.114135742188	1028.435302734375	-307.2725830078125	-1406.269409179688	506.6947631835938	-318.1715393066406	-1429.612182617188	649.1688232421875	-345.730224609375	-1578.8916015625	53.0550651550293	-338.0054016113281	-1495.296264648438	293.1154479980469	-337.6771545410156	-1366.617431640625	46.37425231933594	-284.8209533691406	-1434.9326171875	41.30331802368164	-241.5485992431641	-1451.93408203125	44.16616821289062	-354.7719116210938	-1640.5234375	64.13346862792969	-286.7696533203125	-1501.815673828125	513.2759399414062	-42.86748504638672	-1457.129760742188	778.3324584960938	12.87310981750488	-1584.335327148438	36.88336944580078	-101.8551406860352	-1502.468505859375	398.2027893066406	-67.82246398925781	-1371.821411132812	50.66922378540039	-138.2598724365234	-1425.38232421875	47.34780120849609	-182.3547210693359	-1474.138916015625	38.81322479248047	-72.20693206787109	-1644.188354492188	38.76649856567383	-164.2864227294922	-1392.378173828125	910.780517578125	43.70283126831055	
131	1.3	-1600.0712890625	1050.0947265625	-95.42508697509766	-1600.693603515625	1054.903076171875	-216.1981658935547	-1601.9755859375	1131.547485351562	-173.3622589111328	-1353.682983398438	1312.032348632812	-179.8134918212891	-1609.388549804688	1260.109985351562	-167.9133453369141	-1539.708984375	1519.698486328125	-173.8940734863281	-1376.453369140625	1430.314331054688	-177.5823516845703	-1617.56201171875	1383.118774414062	-97.87160491943359	-1564.071044921875	1483.851684570312	-284.7886962890625	-1475.2744140625	1481.5029296875	-342.1549377441406	-1507.295654296875	1364.538818359375	-421.439208984375	-1492.60107421875	1153.56689453125	-447.5342407226562	-1566.494140625	1138.048461914062	-403.7646179199219	-1403.752685546875	920.2611083984375	-386.30322265625	-1427.599975585938	902.4298706054688	-465.8357238769531	-1470.03369140625	1046.114013671875	-459.7667846679688	-1399.151733398438	722.2459716796875	-393.5663757324219	-1410.2890625	813.853515625	-460.1220092773438	-1368.757568359375	818.0242919921875	-405.8958435058594	-1475.996948242188	1474.923095703125	-7.208349704742432	-1493.37255859375	1411.491333007812	61.70217514038086	-1514.168334960938	1130.1259765625	101.6500625610352	-1557.846313476562	1125.27490234375	16.93356704711914	-1436.3095703125	897.2860717773438	113.8203353881836	-1487.901733398438	1060.4169921875	110.4710922241211	-1384.166748046875	715.1870727539062	37.23955154418945	-1353.9033203125	786.9574584960938	54.20064544677734	-1400.677124023438	788.6039428710938	110.0641021728516	-1486.97607421875	1669.719482421875	-120.1596603393555	-1293.288818359375	1713.743896484375	-231.5380554199219	-1285.370727539062	1712.23876953125	-132.2389831542969	-1452.375732421875	1677.177612304688	-255.8935241699219	-1500.090209960938	988.6759643554688	-354.94091796875	-1505.635620117188	1008.088562011719	12.60893249511719	-1407.84130859375	1049.133911132812	-25.8599853515625	-1398.85009765625	1028.132202148438	-307.1795959472656	-1400.249389648438	507.131591796875	-317.2206115722656	-1425.287353515625	649.3890991210938	-344.5063781738281	-1578.336181640625	55.2885856628418	-337.3648071289062	-1491.631103515625	294.4859313964844	-336.7717590332031	-1366.182495117188	46.4638786315918	-285.162353515625	-1434.236450195312	41.72695159912109	-241.6062927246094	-1451.687866210938	44.81614685058594	-354.5899353027344	-1639.63134765625	67.16680908203125	-285.9288635253906	-1501.307983398438	513.0531616210938	-42.45406723022461	-1455.687744140625	778.0658569335938	13.16920948028564	-1584.392944335938	36.85928344726562	-101.8026504516602	-1502.273193359375	398.1060791015625	-67.42559814453125	-1371.952026367188	50.73477172851562	-138.2631225585938	-1425.574462890625	47.41305541992188	-182.3734436035156	-1474.15966796875	38.79126358032227	-72.18892669677734	-1644.269409179688	38.69623565673828	-164.2378540039062	-1390.458740234375	910.01220703125	44.02765655517578	
132	1.31	-1598.522094726562	1050.001586914062	-94.3587646484375	-1599.758422851562	1054.682373046875	-215.1565704345703	-1600.767211914062	1131.364868164062	-172.3367462158203	-1352.32177734375	1311.684692382812	-180.1012725830078	-1607.8125	1260.021606445312	-166.9583740234375	-1538.075073242188	1519.51904296875	-173.0906219482422	-1374.99609375	1429.960693359375	-177.57568359375	-1615.851928710938	1382.898803710938	-97.00475311279297	-1562.950561523438	1483.871337890625	-283.9346618652344	-1474.407470703125	1481.527221679688	-341.7025451660156	-1506.980590820312	1364.684692382812	-420.9394226074219	-1492.818969726562	1153.6708984375	-447.1878662109375	-1566.576782226562	1138.278442382812	-403.1528015136719	-1403.503662109375	920.4630126953125	-386.1676940917969	-1428.07373046875	902.4774169921875	-465.6276550292969	-1470.414672851562	1046.201049804688	-459.4814147949219	-1399.445922851562	722.3634033203125	-393.3568115234375	-1410.7646484375	813.8790893554688	-459.8853454589844	-1368.99755859375	818.044677734375	-405.7884216308594	-1473.79541015625	1474.294921875	-6.765482902526855	-1491.005493164062	1410.805419921875	62.10516357421875	-1511.831787109375	1129.527221679688	102.1493911743164	-1555.766723632812	1124.65380859375	17.51304054260254	-1434.067138671875	896.6589965820312	114.2225189208984	-1485.5595703125	1059.801391601562	110.9175186157227	-1382.469970703125	714.4056396484375	37.5666389465332	-1352.046020507812	786.176025390625	54.46443557739258	-1398.574951171875	787.9346313476562	110.421142578125	-1484.806274414062	1669.88623046875	-120.0371170043945	-1290.33056640625	1712.64599609375	-230.5152435302734	-1282.901977539062	1711.090576171875	-131.1834411621094	-1449.522216796875	1677.083740234375	-255.5593872070312	-1499.724365234375	988.5028076171875	-354.3948974609375	-1503.681762695312	1007.92919921875	13.13603496551514	-1405.904541015625	1048.983276367188	-25.71795845031738	-1398.403930664062	1027.910034179688	-307.0510864257812	-1394.181030273438	507.7100830078125	-316.2882385253906	-1420.862670898438	649.7728271484375	-343.2948303222656	-1577.64501953125	57.70668411254883	-336.6524353027344	-1487.849243164062	295.9909057617188	-335.8338623046875	-1365.652465820312	46.68908309936523	-285.52587890625	-1433.40673828125	42.2537956237793	-241.64990234375	-1451.361083984375	45.63299179077148	-354.4008178710938	-1638.555908203125	70.37824249267578	-284.9721374511719	-1500.653564453125	512.85205078125	-42.10687255859375	-1454.212768554688	777.8192749023438	13.45202827453613	-1584.440551757812	36.84263229370117	-101.7597045898438	-1501.93310546875	398.0157470703125	-67.09890747070312	-1372.080688476562	50.76359939575195	-138.2712554931641	-1425.744873046875	47.45935821533203	-182.3900451660156	-1474.177001953125	38.77309417724609	-72.17643737792969	-1644.346923828125	38.64228439331055	-164.1923370361328	-1388.433715820312	909.282958984375	44.27486419677734	
133	1.32	-1596.928466796875	1049.936401367188	-93.351806640625	-1598.718017578125	1054.504760742188	-214.1651611328125	-1599.489990234375	1131.230834960938	-171.3360290527344	-1350.887939453125	1311.377075195312	-180.4128570556641	-1606.160522460938	1259.960693359375	-165.9923400878906	-1536.37744140625	1519.365356445312	-172.2898101806641	-1373.470703125	1429.65087890625	-177.6116180419922	-1614.060668945312	1382.724243164062	-96.10090637207031	-1561.79150390625	1483.909545898438	-283.0673217773438	-1473.5166015625	1481.59033203125	-341.2651672363281	-1506.6953125	1364.881469726562	-420.4540710449219	-1493.109741210938	1153.828979492188	-446.8735046386719	-1566.71826171875	1138.564208984375	-402.5399475097656	-1403.197143554688	920.71826171875	-386.0519104003906	-1428.562622070312	902.5828247070312	-465.4302368164062	-1470.859008789062	1046.3408203125	-459.2278442382812	-1399.751098632812	722.5662231445312	-393.1645812988281	-1411.254516601562	813.9567260742188	-459.662109375	-1369.2373046875	818.1419677734375	-405.7200622558594	-1471.490844726562	1473.719482421875	-6.344183921813965	-1488.507202148438	1410.173706054688	62.48802947998047	-1509.358276367188	1128.976318359375	102.6147689819336	-1553.564086914062	1124.108642578125	18.08072662353516	-1431.678344726562	896.0860595703125	114.5517959594727	-1483.065063476562	1059.251342773438	111.3129119873047	-1380.704467773438	713.6751098632812	37.79842376708984	-1350.109008789062	785.435791015625	54.64231109619141	-1396.35595703125	787.3025512695312	110.7020263671875	-1482.582641601562	1670.074462890625	-119.9431533813477	-1287.335815429688	1711.58544921875	-229.5234680175781	-1280.3984375	1709.979858398438	-130.1564636230469	-1446.642333984375	1677.047241210938	-255.2715301513672	-1499.206787109375	988.4158935546875	-353.8749084472656	-1501.7109375	1007.7802734375	13.63016891479492	-1403.873413085938	1048.86572265625	-25.5371036529541	-1397.76513671875	1027.756713867188	-306.8827819824219	-1388.080810546875	508.4115295410156	-315.3758850097656	-1416.346801757812	650.2997436523438	-342.1077575683594	-1576.76953125	60.27164459228516	-335.8751831054688	-1483.94140625	297.600341796875	-334.8687438964844	-1364.978271484375	47.09012222290039	-285.8703918457031	-1432.404907226562	42.90687561035156	-241.6593780517578	-1450.896850585938	46.62074279785156	-354.2010803222656	-1637.270751953125	73.71532440185547	-283.917236328125	-1499.859375	512.671630859375	-41.81760787963867	-1452.708618164062	777.5848999023438	13.7180814743042	-1584.477172851562	36.83112716674805	-101.7262191772461	-1501.44189453125	397.9216003417969	-66.83420562744141	-1372.198364257812	50.75704574584961	-138.2887878417969	-1425.885864257812	47.48421096801758	-182.4052581787109	-1474.190063476562	38.75857925415039	-72.16758728027344	-1644.418212890625	38.60496139526367	-164.1514739990234	-1386.290283203125	908.6070556640625	44.44144058227539	
